<mxfile host="app.diagrams.net" modified="2024-06-13T15:41:49.648Z" agent="Mozilla/5.0 (Windows NT 10.0; Win64; x64) AppleWebKit/537.36 (KHTML, like Gecko) Chrome/125.0.0.0 Safari/537.36" version="24.5.4" etag="dsKGBhpGf7gln0ed2_7Y" type="github">
  <diagram name="Page-1" id="8Z3PD3Q-81h_M_HOh9sJ">
    <mxGraphModel>
      <root>
        <mxCell id="0" />
        <mxCell id="1" parent="0" />
      </root>
    </mxGraphModel>
  </diagram>
</mxfile>
